<svg id="Layer_5" data-name="Layer 5" xmlns="http://www.w3.org/2000/svg" viewBox="0 0 526.23 551.68"><defs><style>.cls-1,.cls-2{fill:#eaeea4;}.cls-1{stroke:#eaeea4;stroke-linecap:round;stroke-linejoin:round;stroke-width:18px;}</style></defs><path class="cls-1" d="M921.25,722.4c-2-98.71-11.9-279.58-11.9-279.58s-67.13,83.43-86.44,109l-.18-.11c-44.15-26-116.15-35.84-155.22-35.84s-110.89,9.84-155,36l-.15-.2c-19.49-25.82-86.67-108.84-86.67-108.84s-9.85,180.87-11.9,279.58c-.43,20.57-.52,37.57-.12,48.63,2.37,64.12,62,205.47,253.86,205.47S919,835.15,921.36,771C921.77,760,921.68,743,921.25,722.4Zm-195.4,61c18.23,70.52,33.81,129.26-58.34,129.26s-76.57-58.74-58.34-129.26c-41.28,11.64-96.23-13.93-96.26-78.13,0-95.62,99.48-113.22,154.6-113.22s154.65,17.6,154.6,113.22C822.08,769.43,767.13,795,725.85,783.36Z" transform="translate(-404.39 -433.82)"/><polygon class="cls-2" points="263.12 288.48 219.82 288.48 241.47 250.98 263.12 213.48 284.77 250.98 306.42 288.48 263.12 288.48"/></svg>